<?xml version="1.0" encoding="UTF-8"?><svg id="Livello_1" xmlns="http://www.w3.org/2000/svg" viewBox="0 0 1052.89 1052.73"><defs><style>.cls-1{fill:#4d4d4d;stroke-width:0px;}</style></defs><path class="cls-1" d="M908.53,176.54c107.06,106.78,170.33,281.18,134.11,460.57-40.84,202.28-197.39,358.3-392.37,402.52-194.67,44.15-371.76-29.31-473.56-131.35,107.98,91.77,232.76,135.62,374.22,127.04,131.56-7.99,244.74-59.87,336.99-154.02,94.57-96.51,144.41-213.27,148.21-348.67,3.79-135.09-40.6-253.32-127.6-356.1Z"/><path class="cls-1" d="M140.36,872.64C16.87,732.75-27.81,571.56,17,389.41,64.01,198.26,217.24,53.65,403.73,13.34c179.5-38.8,336.96,7.82,472.65,130.15C768.17,52.55,643.4,8.7,501.96,17.35c-132.55,8.11-246.33,60.69-338.79,155.98C70.22,269.14,21.07,384.73,16.95,518.52c-4.12,133.78,39.12,251.25,123.41,354.12Z"/><path class="cls-1" d="M319.52,725.34h-42.04v-397.7h42.04v397.7Z"/><path class="cls-1" d="M396.67,328.46c18.72.7,37.01,3.88,54.77,9.7,56.84,18.62,93.54,57.32,111.47,113.83,16.08,50.67,16.04,101.82-.42,152.29-20.22,61.99-63.48,99.65-126.55,114.72-12.15,2.9-24.66,4.29-37.15,5.62,19.21-3.6,37.35-9.76,53.76-20.49,28.49-18.64,46.25-45.45,58.02-76.73,10.6-28.17,15.27-57.49,16.36-87.43,1.41-38.63-2.79-76.5-16.48-112.91-10.35-27.51-25.52-51.79-48.65-70.53-19.08-15.46-40.98-24.28-65.12-28.06Z"/><path class="cls-1" d="M658.85,520.36c26.81-4.14,41.5-20.98,49.77-44.94,11.95-34.62,11.89-69.76.15-104.46-6.79-20.06-19.21-38.73-48.42-45.3,45.68-4.04,94.84,35.55,100.8,81.03,8.09,61.72-32.27,104.77-96.07,113.66,8.73,1.88,17.13,3.17,25.22,5.53,38.67,11.3,61.02,37.64,67.51,76.81,3.27,19.7,3.31,39.92,5.75,59.79,1.52,12.41,4.07,24.81,7.48,36.83,2.84,10.03,8.98,18.4,18.91,23.46-23.54,4.45-50.98-9.34-61.93-30.98-7.17-14.17-9.79-29.53-11.48-45.1-2.53-23.26-4.78-46.55-7.57-69.77-.69-5.74-2.62-11.41-4.6-16.89-7.88-21.86-22.51-35.13-45.52-39.67Z"/></svg>